<?xml version="1.0" encoding="iso-8859-1"?>
<!-- Uploaded to: SVG Repo, www.svgrepo.com, Generator: SVG Repo Mixer Tools -->
<svg fill="#000000" height="800px" width="800px" version="1.1" id="Layer_1" xmlns="http://www.w3.org/2000/svg" xmlns:xlink="http://www.w3.org/1999/xlink" 
	 viewBox="0 0 512.001 512.001" xml:space="preserve">
<g>
	<g>
		<polygon points="167.941,232.136 167.941,416.094 183.651,416.094 183.651,247.845 328.036,247.845 328.036,416.094 
			343.745,416.094 343.745,232.136 		"/>
	</g>
</g>
<g>
	<g>
		<path d="M215.97,96.057v127.775h79.747V96.057H215.97z M280.007,208.122h-48.328v-96.355h48.328V208.122z"/>
	</g>
</g>
<g>
	<g>
		<polygon points="287.42,295.798 287.42,400.529 222.487,400.529 222.487,295.798 206.778,295.798 206.778,416.238 303.13,416.238 
			303.13,295.798 		"/>
	</g>
</g>
<g>
	<g>
		<path d="M419.191,408.24l-27.418-27.419V138.685l27.939-34.925h92.131V0H408.082v93.151l-27.939,34.924h-76.271v15.71h72.192
			v232.436h-24.166v15.71h28.766l27.419,27.418v92.652h103.761V408.24H419.191z M423.791,15.71h72.342v72.342h-72.342V15.71z
			 M496.133,496.29h-72.342v-72.342h72.342V496.29z"/>
	</g>
</g>
<g>
	<g>
		<path d="M207.818,143.785v-15.71h-76.25L103.92,93.172V0H0.158v103.761h92.107l27.648,34.904v242.144l-27.09,26.926H0.158v103.761
			h103.761v-92.64l27.09-26.926h28.781v-15.71h-24.166V143.785H207.818z M15.867,88.051V15.71h72.342v72.342H15.867z
			 M15.867,495.787v-72.342h72.342v72.342H15.867z"/>
	</g>
</g>
</svg>
