<?xml version="1.0" encoding="iso-8859-1"?>
<!-- Uploaded to: SVG Repo, www.svgrepo.com, Generator: SVG Repo Mixer Tools -->
<svg fill="#000000" version="1.1" id="Layer_1" xmlns="http://www.w3.org/2000/svg" xmlns:xlink="http://www.w3.org/1999/xlink" 
	 viewBox="0 0 512 512" xml:space="preserve">
<g>
	<g>
		<path d="M255.999,83.821c-70.517,0-127.887,57.37-127.887,127.888c0,67.864,53.136,123.541,119.987,127.637v15.616h15.566V339.36
			c66.963-3.979,120.224-59.708,120.224-127.652C383.889,141.192,326.518,83.821,255.999,83.821z M255.999,324.031
			c-61.935,0-112.321-50.387-112.321-112.322S194.065,99.386,255.999,99.386s112.322,50.387,112.322,112.322
			S317.935,324.031,255.999,324.031z"/>
	</g>
</g>
<g>
	<g>
		<rect x="231.494" y="364.301" width="48.773" height="15.566"/>
	</g>
</g>
<g>
	<g>
		<polygon points="231.496,389.206 231.496,500.242 247.062,500.242 247.062,404.772 263.665,404.772 263.665,500.242 
			279.231,500.242 279.231,389.206 		"/>
	</g>
</g>
<g>
	<g>
		<path d="M0,131.863v159.692h55.601V131.863H0z M40.035,275.989H15.566V147.428h24.469V275.989z"/>
	</g>
</g>
<g>
	<g>
		<path d="M64.056,11.758V411.66h55.601V11.758H64.056z M104.091,396.094H79.622V27.324h24.469V396.094z"/>
	</g>
</g>
<g>
	<g>
		<path d="M456.4,131.863v159.692H512V131.863H456.4z M496.434,275.989h-24.468V147.428h24.468V275.989z"/>
	</g>
</g>
<g>
	<g>
		<path d="M392.343,11.758V411.66h55.601V11.758H392.343z M432.378,396.094h-24.469V27.324h24.469V396.094z"/>
	</g>
</g>
<g>
	<g>
		<path d="M255.999,107.842c-57.272,0-103.867,46.594-103.867,103.867c0,57.273,46.594,103.867,103.867,103.867
			s103.867-46.595,103.867-103.867C359.867,154.436,313.272,107.842,255.999,107.842z M167.699,211.709
			c0-8.631,1.267-16.968,3.586-24.857h12.476v49.81h-12.449C168.974,228.744,167.699,220.375,167.699,211.709z M255.999,300.01
			c-34.088,0-63.705-19.429-78.416-47.783h21.743v-80.942h-21.792c14.694-28.405,44.339-47.878,78.465-47.878
			c34.126,0,63.771,19.473,78.465,47.878h-22.027v0v80.942h21.978C319.705,280.581,290.087,300.01,255.999,300.01z M328.004,236.662
			v-49.81h12.711c2.319,7.891,3.586,16.227,3.586,24.857c0,8.666-1.276,17.034-3.613,24.953H328.004z"/>
	</g>
</g>
<g>
	<g>
		<path d="M232.204,139.87v143.678h47.594V139.87H232.204z M264.232,267.982h-16.462V155.435h16.462V267.982z"/>
	</g>
</g>
</svg>