<?xml version="1.0" encoding="iso-8859-1"?>
<!-- Uploaded to: SVG Repo, www.svgrepo.com, Generator: SVG Repo Mixer Tools -->
<svg fill="#000000" version="1.1" id="Layer_1" xmlns="http://www.w3.org/2000/svg" xmlns:xlink="http://www.w3.org/1999/xlink" 
	 viewBox="0 0 512.003 512.003" xml:space="preserve">
<g>
	<g>
		<rect x="200.178" y="170.881" width="16.539" height="15.506"/>
	</g>
</g>
<g>
	<g>
		<rect x="223.954" y="170.881" width="16.539" height="15.506"/>
	</g>
</g>
<g>
	<g>
		<rect x="247.729" y="170.881" width="16.539" height="15.506"/>
	</g>
</g>
<g>
	<g>
		<rect x="271.504" y="170.881" width="16.539" height="15.506"/>
	</g>
</g>
<g>
	<g>
		<rect x="295.279" y="170.881" width="16.539" height="15.506"/>
	</g>
</g>
<g>
	<g>
		<rect x="168.134" y="448.947" width="175.729" height="15.506"/>
	</g>
</g>
<g>
	<g>
		<rect x="176.403" y="472.722" width="47.55" height="15.506"/>
	</g>
</g>
<g>
	<g>
		<rect x="191.909" y="496.498" width="16.539" height="15.506"/>
	</g>
</g>
<g>
	<g>
		<rect x="288.043" y="472.722" width="47.55" height="15.506"/>
	</g>
</g>
<g>
	<g>
		<rect x="303.549" y="496.498" width="16.539" height="15.506"/>
	</g>
</g>
<g>
	<g>
		<rect x="303.549" y="401.397" width="16.539" height="15.506"/>
	</g>
</g>
<g>
	<g>
		<rect x="303.549" y="377.622" width="16.539" height="15.505"/>
	</g>
</g>
<g>
	<g>
		<rect x="303.549" y="353.847" width="16.539" height="15.505"/>
	</g>
</g>
<g>
	<g>
		<path d="M375.295,313.529h-7.953c-11.592,0-21.322-7.608-23.859-18.252v-156.86c-0.184-20.633-14.233-48.482-41.499-84.548
			c-19.939-26.374-39.552-47.164-40.376-48.027L256.003,0l-5.606,5.921c-0.825,0.864-20.437,21.562-40.376,47.936
			c-27.266,36.066-41.315,63.927-41.499,84.56v156.86c-2.536,10.644-12.267,18.252-23.859,18.252h-7.953
			c-21.999,0-39.898,17.77-39.898,39.615v47.216h71.709v40.265h174.962V400.36h71.709v-47.216
			C415.193,331.301,397.294,313.529,375.295,313.529z M256.003,22.956c6.703,7.338,15.176,17.09,23.932,28.013H232.07
			C240.826,40.047,249.3,30.295,256.003,22.956z M168.522,384.855L168.522,384.855h-56.204v-31.711
			c0-13.293,10.942-24.109,24.392-24.109h7.953c8.935,0,17.191-2.913,23.859-7.82V384.855z M327.578,400.36v24.359h-64.34V320.661
			c18.482-3.413,32.529-19.638,32.529-39.093c0-21.926-17.838-39.763-39.764-39.763s-39.764,17.838-39.764,39.763
			c0,19.09,13.525,35.077,31.495,38.893v104.258h-63.306V400.36h0.25l-0.25-213.976h7.486v-15.506h-7.486v-16.556h143.151v16.556
			h-7.486v15.506h7.486l-0.25,213.976H327.578z M256.003,305.427c-13.156,0-23.859-10.703-23.859-23.859
			c0-13.156,10.703-23.859,23.859-23.859c13.156,0,23.859,10.703,23.859,23.859C279.861,294.724,269.159,305.427,256.003,305.427z
			 M184.17,138.417c0.249-18.57,17.176-46.672,35.925-71.943h71.814c18.749,25.27,35.676,53.372,35.925,71.943H184.17z
			 M399.688,384.855h-0.001h-56.203v-63.64c6.667,4.907,14.923,7.82,23.859,7.82h7.953c13.45,0,24.392,10.815,24.392,24.109V384.855
			z"/>
	</g>
</g>
</svg>